<mxfile host="app.diagrams.net" modified="2023-06-07T21:19:08.414Z" agent="Mozilla/5.0 (Windows NT 10.0; Win64; x64) AppleWebKit/537.36 (KHTML, like Gecko) Chrome/114.0.0.0 Safari/537.36 Edg/114.0.1823.37" etag="BXk9sHIiXuRz730--Oux" version="21.3.7" type="google" pages="2">
  <diagram id="nJJkk1liXFZkpycsaKev" name="Page-1">
    <mxGraphModel grid="1" page="1" gridSize="10" guides="1" tooltips="1" connect="1" arrows="1" fold="1" pageScale="1" pageWidth="827" pageHeight="1169" math="0" shadow="0">
      <root>
        <mxCell id="0" />
        <mxCell id="1" parent="0" />
        <mxCell id="YpAn_TQ5xzmcTJUviu92-57" value="" style="edgeStyle=orthogonalEdgeStyle;rounded=0;orthogonalLoop=1;jettySize=auto;html=1;" edge="1" parent="1" source="YpAn_TQ5xzmcTJUviu92-58" target="YpAn_TQ5xzmcTJUviu92-60">
          <mxGeometry relative="1" as="geometry" />
        </mxCell>
        <mxCell id="YpAn_TQ5xzmcTJUviu92-58" value="&lt;font style=&quot;vertical-align: inherit;&quot;&gt;&lt;font style=&quot;vertical-align: inherit;&quot;&gt;começar&lt;/font&gt;&lt;/font&gt;" style="strokeWidth=2;html=1;shape=mxgraph.flowchart.start_1;whiteSpace=wrap;" vertex="1" parent="1">
          <mxGeometry x="70" y="80" width="100" height="60" as="geometry" />
        </mxCell>
        <mxCell id="YpAn_TQ5xzmcTJUviu92-59" value="" style="edgeStyle=orthogonalEdgeStyle;rounded=0;orthogonalLoop=1;jettySize=auto;html=1;entryX=0;entryY=0.5;entryDx=0;entryDy=0;" edge="1" parent="1" source="YpAn_TQ5xzmcTJUviu92-60" target="YpAn_TQ5xzmcTJUviu92-73">
          <mxGeometry relative="1" as="geometry">
            <mxPoint x="200" y="300" as="targetPoint" />
          </mxGeometry>
        </mxCell>
        <mxCell id="YpAn_TQ5xzmcTJUviu92-60" value="&lt;font style=&quot;vertical-align: inherit;&quot;&gt;&lt;font style=&quot;vertical-align: inherit;&quot;&gt;Página de login: O usuário escolhe a opção de recarregar o Bilhete Único&lt;/font&gt;&lt;/font&gt;" style="whiteSpace=wrap;html=1;strokeWidth=2;" vertex="1" parent="1">
          <mxGeometry x="60" y="220" width="120" height="60" as="geometry" />
        </mxCell>
        <mxCell id="YpAn_TQ5xzmcTJUviu92-61" value="" style="edgeStyle=orthogonalEdgeStyle;rounded=0;orthogonalLoop=1;jettySize=auto;html=1;entryX=0;entryY=0.5;entryDx=0;entryDy=0;exitX=1;exitY=0.5;exitDx=0;exitDy=0;" edge="1" parent="1" source="YpAn_TQ5xzmcTJUviu92-73" target="YpAn_TQ5xzmcTJUviu92-66">
          <mxGeometry relative="1" as="geometry">
            <mxPoint x="420" y="250" as="targetPoint" />
          </mxGeometry>
        </mxCell>
        <mxCell id="YpAn_TQ5xzmcTJUviu92-62" style="edgeStyle=orthogonalEdgeStyle;rounded=0;orthogonalLoop=1;jettySize=auto;html=1;entryX=0.5;entryY=0;entryDx=0;entryDy=0;" edge="1" parent="1" source="YpAn_TQ5xzmcTJUviu92-66" target="YpAn_TQ5xzmcTJUviu92-87">
          <mxGeometry relative="1" as="geometry">
            <mxPoint x="730" y="320" as="targetPoint" />
            <Array as="points">
              <mxPoint x="640" y="290" />
              <mxPoint x="730" y="290" />
            </Array>
          </mxGeometry>
        </mxCell>
        <mxCell id="YpAn_TQ5xzmcTJUviu92-63" value="Escolhe a Opção Dinheiro" style="edgeLabel;html=1;align=center;verticalAlign=middle;resizable=0;points=[];" connectable="0" vertex="1" parent="YpAn_TQ5xzmcTJUviu92-62">
          <mxGeometry x="-0.1025" y="-1" relative="1" as="geometry">
            <mxPoint x="27" as="offset" />
          </mxGeometry>
        </mxCell>
        <mxCell id="YpAn_TQ5xzmcTJUviu92-64" style="edgeStyle=orthogonalEdgeStyle;rounded=0;orthogonalLoop=1;jettySize=auto;html=1;entryX=0.5;entryY=0;entryDx=0;entryDy=0;" edge="1" parent="1" source="YpAn_TQ5xzmcTJUviu92-66" target="YpAn_TQ5xzmcTJUviu92-91">
          <mxGeometry relative="1" as="geometry">
            <mxPoint x="500" y="370" as="targetPoint" />
            <Array as="points">
              <mxPoint x="640" y="290" />
              <mxPoint x="554" y="290" />
            </Array>
          </mxGeometry>
        </mxCell>
        <mxCell id="YpAn_TQ5xzmcTJUviu92-65" value="Escolhe a opção Débito" style="edgeLabel;html=1;align=center;verticalAlign=middle;resizable=0;points=[];" connectable="0" vertex="1" parent="YpAn_TQ5xzmcTJUviu92-64">
          <mxGeometry x="0.1745" relative="1" as="geometry">
            <mxPoint x="-4" y="-20" as="offset" />
          </mxGeometry>
        </mxCell>
        <mxCell id="YpAn_TQ5xzmcTJUviu92-66" value="&lt;font style=&quot;font-size: 9px;&quot;&gt;Escolhe o tipo de recarga&lt;/font&gt;" style="rhombus;whiteSpace=wrap;html=1;strokeWidth=2;" vertex="1" parent="1">
          <mxGeometry x="600" y="180" width="80" height="80" as="geometry" />
        </mxCell>
        <mxCell id="YpAn_TQ5xzmcTJUviu92-67" style="edgeStyle=orthogonalEdgeStyle;rounded=0;orthogonalLoop=1;jettySize=auto;html=1;exitX=0;exitY=0.5;exitDx=0;exitDy=0;" edge="1" parent="1" source="YpAn_TQ5xzmcTJUviu92-72">
          <mxGeometry relative="1" as="geometry">
            <mxPoint x="60" y="250" as="targetPoint" />
            <Array as="points">
              <mxPoint x="20" y="1050" />
              <mxPoint x="20" y="250" />
            </Array>
            <mxPoint x="190" y="1050.0344827586207" as="sourcePoint" />
          </mxGeometry>
        </mxCell>
        <mxCell id="YpAn_TQ5xzmcTJUviu92-68" value="Sistema volta para tela inicial." style="edgeLabel;html=1;align=center;verticalAlign=middle;resizable=0;points=[];" connectable="0" vertex="1" parent="YpAn_TQ5xzmcTJUviu92-67">
          <mxGeometry x="-0.7949" relative="1" as="geometry">
            <mxPoint x="23" as="offset" />
          </mxGeometry>
        </mxCell>
        <mxCell id="YpAn_TQ5xzmcTJUviu92-69" style="edgeStyle=orthogonalEdgeStyle;rounded=0;orthogonalLoop=1;jettySize=auto;html=1;exitX=0.5;exitY=1;exitDx=0;exitDy=0;" edge="1" parent="1" source="YpAn_TQ5xzmcTJUviu92-76">
          <mxGeometry relative="1" as="geometry">
            <mxPoint x="680" y="1020" as="targetPoint" />
          </mxGeometry>
        </mxCell>
        <mxCell id="YpAn_TQ5xzmcTJUviu92-70" value="" style="edgeStyle=orthogonalEdgeStyle;rounded=0;orthogonalLoop=1;jettySize=auto;html=1;" edge="1" parent="1" source="YpAn_TQ5xzmcTJUviu92-71" target="YpAn_TQ5xzmcTJUviu92-76">
          <mxGeometry relative="1" as="geometry" />
        </mxCell>
        <mxCell id="YpAn_TQ5xzmcTJUviu92-71" value="Compra no cartão é aprovada" style="whiteSpace=wrap;html=1;strokeWidth=2;" vertex="1" parent="1">
          <mxGeometry x="494" y="810" width="120" height="60" as="geometry" />
        </mxCell>
        <mxCell id="YpAn_TQ5xzmcTJUviu92-72" value="Cartão é recarregado com sucesso!" style="whiteSpace=wrap;html=1;strokeWidth=2;" vertex="1" parent="1">
          <mxGeometry x="620" y="1020" width="120" height="60" as="geometry" />
        </mxCell>
        <mxCell id="YpAn_TQ5xzmcTJUviu92-73" value="Escolhe o método de pagamento" style="rounded=0;whiteSpace=wrap;html=1;" vertex="1" parent="1">
          <mxGeometry x="250" y="220" width="120" height="60" as="geometry" />
        </mxCell>
        <mxCell id="YpAn_TQ5xzmcTJUviu92-74" style="edgeStyle=orthogonalEdgeStyle;rounded=0;orthogonalLoop=1;jettySize=auto;html=1;entryX=0.5;entryY=0;entryDx=0;entryDy=0;" edge="1" parent="1" source="YpAn_TQ5xzmcTJUviu92-75" target="YpAn_TQ5xzmcTJUviu92-83">
          <mxGeometry relative="1" as="geometry" />
        </mxCell>
        <mxCell id="YpAn_TQ5xzmcTJUviu92-75" value="Usuário digita a senha" style="rounded=0;whiteSpace=wrap;html=1;" vertex="1" parent="1">
          <mxGeometry x="494" y="490" width="120" height="60" as="geometry" />
        </mxCell>
        <mxCell id="YpAn_TQ5xzmcTJUviu92-76" value="Sistema pede que usuário remova seu cartão" style="rounded=0;whiteSpace=wrap;html=1;" vertex="1" parent="1">
          <mxGeometry x="494" y="910" width="120" height="60" as="geometry" />
        </mxCell>
        <mxCell id="YpAn_TQ5xzmcTJUviu92-77" style="edgeStyle=orthogonalEdgeStyle;rounded=0;orthogonalLoop=1;jettySize=auto;html=1;entryX=0;entryY=0.5;entryDx=0;entryDy=0;" edge="1" parent="1" source="YpAn_TQ5xzmcTJUviu92-83" target="YpAn_TQ5xzmcTJUviu92-75">
          <mxGeometry relative="1" as="geometry">
            <mxPoint x="470" y="500" as="targetPoint" />
            <Array as="points">
              <mxPoint x="410" y="690" />
              <mxPoint x="410" y="520" />
              <mxPoint x="450" y="520" />
            </Array>
          </mxGeometry>
        </mxCell>
        <mxCell id="YpAn_TQ5xzmcTJUviu92-78" value="Senha Incorreta" style="edgeLabel;html=1;align=center;verticalAlign=middle;resizable=0;points=[];" connectable="0" vertex="1" parent="YpAn_TQ5xzmcTJUviu92-77">
          <mxGeometry x="-0.1821" relative="1" as="geometry">
            <mxPoint as="offset" />
          </mxGeometry>
        </mxCell>
        <mxCell id="YpAn_TQ5xzmcTJUviu92-79" value="" style="edgeStyle=orthogonalEdgeStyle;rounded=0;orthogonalLoop=1;jettySize=auto;html=1;entryX=0.5;entryY=0;entryDx=0;entryDy=0;" edge="1" parent="1" source="YpAn_TQ5xzmcTJUviu92-83" target="YpAn_TQ5xzmcTJUviu92-71">
          <mxGeometry relative="1" as="geometry" />
        </mxCell>
        <mxCell id="YpAn_TQ5xzmcTJUviu92-80" value="Senha Correta" style="edgeLabel;html=1;align=center;verticalAlign=middle;resizable=0;points=[];" connectable="0" vertex="1" parent="YpAn_TQ5xzmcTJUviu92-79">
          <mxGeometry x="-0.2551" y="-1" relative="1" as="geometry">
            <mxPoint as="offset" />
          </mxGeometry>
        </mxCell>
        <mxCell id="YpAn_TQ5xzmcTJUviu92-81" style="edgeStyle=orthogonalEdgeStyle;rounded=0;orthogonalLoop=1;jettySize=auto;html=1;entryX=1;entryY=0.5;entryDx=0;entryDy=0;" edge="1" parent="1" source="YpAn_TQ5xzmcTJUviu92-83" target="YpAn_TQ5xzmcTJUviu92-85">
          <mxGeometry relative="1" as="geometry">
            <Array as="points">
              <mxPoint x="280" y="690" />
              <mxPoint x="280" y="530" />
            </Array>
          </mxGeometry>
        </mxCell>
        <mxCell id="YpAn_TQ5xzmcTJUviu92-82" value="Senha Incorreta 3x" style="edgeLabel;html=1;align=center;verticalAlign=middle;resizable=0;points=[];" connectable="0" vertex="1" parent="YpAn_TQ5xzmcTJUviu92-81">
          <mxGeometry x="-0.2509" y="3" relative="1" as="geometry">
            <mxPoint as="offset" />
          </mxGeometry>
        </mxCell>
        <mxCell id="YpAn_TQ5xzmcTJUviu92-83" value="Senha correta?" style="rhombus;whiteSpace=wrap;html=1;" vertex="1" parent="1">
          <mxGeometry x="514" y="640" width="80" height="80" as="geometry" />
        </mxCell>
        <mxCell id="YpAn_TQ5xzmcTJUviu92-84" style="edgeStyle=orthogonalEdgeStyle;rounded=0;orthogonalLoop=1;jettySize=auto;html=1;entryX=0.5;entryY=1;entryDx=0;entryDy=0;" edge="1" parent="1" source="YpAn_TQ5xzmcTJUviu92-85" target="YpAn_TQ5xzmcTJUviu92-60">
          <mxGeometry relative="1" as="geometry" />
        </mxCell>
        <mxCell id="YpAn_TQ5xzmcTJUviu92-85" value="Usuário tem seu cartão bloqueado" style="rounded=0;whiteSpace=wrap;html=1;" vertex="1" parent="1">
          <mxGeometry x="220" y="500" width="120" height="60" as="geometry" />
        </mxCell>
        <mxCell id="YpAn_TQ5xzmcTJUviu92-86" style="edgeStyle=orthogonalEdgeStyle;rounded=0;orthogonalLoop=1;jettySize=auto;html=1;entryX=0.5;entryY=0;entryDx=0;entryDy=0;" edge="1" parent="1" source="YpAn_TQ5xzmcTJUviu92-87" target="YpAn_TQ5xzmcTJUviu92-89">
          <mxGeometry relative="1" as="geometry" />
        </mxCell>
        <mxCell id="YpAn_TQ5xzmcTJUviu92-87" value="Usuário insere o dinheiro" style="rounded=0;whiteSpace=wrap;html=1;" vertex="1" parent="1">
          <mxGeometry x="670" y="400" width="120" height="60" as="geometry" />
        </mxCell>
        <mxCell id="YpAn_TQ5xzmcTJUviu92-88" style="edgeStyle=orthogonalEdgeStyle;rounded=0;orthogonalLoop=1;jettySize=auto;html=1;entryX=0.5;entryY=0;entryDx=0;entryDy=0;" edge="1" parent="1" source="YpAn_TQ5xzmcTJUviu92-89" target="YpAn_TQ5xzmcTJUviu92-94">
          <mxGeometry relative="1" as="geometry" />
        </mxCell>
        <mxCell id="YpAn_TQ5xzmcTJUviu92-89" value="Usuário confere o Valor de recarga" style="rounded=0;whiteSpace=wrap;html=1;" vertex="1" parent="1">
          <mxGeometry x="670" y="580" width="120" height="60" as="geometry" />
        </mxCell>
        <mxCell id="YpAn_TQ5xzmcTJUviu92-90" value="" style="edgeStyle=orthogonalEdgeStyle;rounded=0;orthogonalLoop=1;jettySize=auto;html=1;entryX=0.5;entryY=0;entryDx=0;entryDy=0;" edge="1" parent="1" source="YpAn_TQ5xzmcTJUviu92-91" target="YpAn_TQ5xzmcTJUviu92-75">
          <mxGeometry relative="1" as="geometry" />
        </mxCell>
        <mxCell id="YpAn_TQ5xzmcTJUviu92-91" value="Usuário Insere seu Bilhete Único" style="rounded=0;whiteSpace=wrap;html=1;" vertex="1" parent="1">
          <mxGeometry x="494" y="400" width="120" height="60" as="geometry" />
        </mxCell>
        <mxCell id="YpAn_TQ5xzmcTJUviu92-92" style="edgeStyle=orthogonalEdgeStyle;rounded=0;orthogonalLoop=1;jettySize=auto;html=1;exitX=0.5;exitY=1;exitDx=0;exitDy=0;entryX=0.5;entryY=0;entryDx=0;entryDy=0;" edge="1" parent="1" source="YpAn_TQ5xzmcTJUviu92-94" target="YpAn_TQ5xzmcTJUviu92-96">
          <mxGeometry relative="1" as="geometry" />
        </mxCell>
        <mxCell id="YpAn_TQ5xzmcTJUviu92-93" style="edgeStyle=orthogonalEdgeStyle;rounded=0;orthogonalLoop=1;jettySize=auto;html=1;exitX=0.5;exitY=1;exitDx=0;exitDy=0;" edge="1" parent="1" source="YpAn_TQ5xzmcTJUviu92-94">
          <mxGeometry relative="1" as="geometry">
            <mxPoint x="680" y="1020" as="targetPoint" />
            <Array as="points">
              <mxPoint x="810" y="770" />
              <mxPoint x="810" y="950" />
              <mxPoint x="680" y="950" />
              <mxPoint x="680" y="1020" />
            </Array>
          </mxGeometry>
        </mxCell>
        <mxCell id="YpAn_TQ5xzmcTJUviu92-94" value="&lt;font style=&quot;font-size: 9px;&quot;&gt;Usuário escolhe se deseja ou não imprimir o recibo&lt;/font&gt;" style="rhombus;whiteSpace=wrap;html=1;" vertex="1" parent="1">
          <mxGeometry x="690" y="690" width="80" height="80" as="geometry" />
        </mxCell>
        <mxCell id="YpAn_TQ5xzmcTJUviu92-95" style="edgeStyle=orthogonalEdgeStyle;rounded=0;orthogonalLoop=1;jettySize=auto;html=1;entryX=0.5;entryY=0;entryDx=0;entryDy=0;" edge="1" parent="1" source="YpAn_TQ5xzmcTJUviu92-96" target="YpAn_TQ5xzmcTJUviu92-72">
          <mxGeometry relative="1" as="geometry">
            <Array as="points">
              <mxPoint x="700" y="950" />
              <mxPoint x="680" y="950" />
            </Array>
          </mxGeometry>
        </mxCell>
        <mxCell id="YpAn_TQ5xzmcTJUviu92-96" value="A máquina imprime o recibo para o usuário" style="rounded=0;whiteSpace=wrap;html=1;" vertex="1" parent="1">
          <mxGeometry x="640" y="840" width="120" height="60" as="geometry" />
        </mxCell>
      </root>
    </mxGraphModel>
  </diagram>
  <diagram id="nGwkYP6KwtfXDhD1wSqK" name="Page-2">
    <mxGraphModel dx="1235" dy="679" grid="1" gridSize="10" guides="1" tooltips="1" connect="1" arrows="1" fold="1" page="1" pageScale="1" pageWidth="827" pageHeight="1169" math="0" shadow="0">
      <root>
        <mxCell id="0" />
        <mxCell id="1" parent="0" />
        <mxCell id="j6Z6B7jXOkgmwzLGGSYQ-2" value="" style="edgeStyle=orthogonalEdgeStyle;rounded=0;orthogonalLoop=1;jettySize=auto;html=1;endArrow=none;endFill=0;" edge="1" parent="1" source="JpabnDjNECiLwwynXuOD-1" target="j6Z6B7jXOkgmwzLGGSYQ-1">
          <mxGeometry relative="1" as="geometry" />
        </mxCell>
        <mxCell id="JpabnDjNECiLwwynXuOD-1" value="Começar" style="strokeWidth=2;html=1;shape=mxgraph.flowchart.start_1;whiteSpace=wrap;" vertex="1" parent="1">
          <mxGeometry x="66" y="60" width="100" height="60" as="geometry" />
        </mxCell>
        <mxCell id="j6Z6B7jXOkgmwzLGGSYQ-5" value="" style="edgeStyle=orthogonalEdgeStyle;rounded=0;orthogonalLoop=1;jettySize=auto;html=1;" edge="1" parent="1" source="j6Z6B7jXOkgmwzLGGSYQ-1" target="j6Z6B7jXOkgmwzLGGSYQ-4">
          <mxGeometry relative="1" as="geometry" />
        </mxCell>
        <mxCell id="j6Z6B7jXOkgmwzLGGSYQ-1" value="Página inicial: O usuário escolhe a opção de comprar o bilhete único impresso." style="whiteSpace=wrap;html=1;strokeWidth=2;" vertex="1" parent="1">
          <mxGeometry x="46" y="200" width="140" height="70" as="geometry" />
        </mxCell>
        <mxCell id="j6Z6B7jXOkgmwzLGGSYQ-7" value="" style="edgeStyle=orthogonalEdgeStyle;rounded=0;orthogonalLoop=1;jettySize=auto;html=1;endArrow=none;endFill=0;" edge="1" parent="1" source="j6Z6B7jXOkgmwzLGGSYQ-4" target="j6Z6B7jXOkgmwzLGGSYQ-6">
          <mxGeometry relative="1" as="geometry" />
        </mxCell>
        <mxCell id="j6Z6B7jXOkgmwzLGGSYQ-4" value="Escolher quantos bilhetes únicos irão ser impressos" style="whiteSpace=wrap;html=1;strokeWidth=2;" vertex="1" parent="1">
          <mxGeometry x="236" y="197.5" width="130" height="75" as="geometry" />
        </mxCell>
        <mxCell id="j6Z6B7jXOkgmwzLGGSYQ-9" value="" style="edgeStyle=orthogonalEdgeStyle;rounded=0;orthogonalLoop=1;jettySize=auto;html=1;endArrow=none;endFill=0;" edge="1" parent="1" source="j6Z6B7jXOkgmwzLGGSYQ-6" target="j6Z6B7jXOkgmwzLGGSYQ-8">
          <mxGeometry relative="1" as="geometry" />
        </mxCell>
        <mxCell id="j6Z6B7jXOkgmwzLGGSYQ-6" value="Usuário seleciona qual forma de pagamento, dinheiro." style="whiteSpace=wrap;html=1;strokeWidth=2;" vertex="1" parent="1">
          <mxGeometry x="416" y="197.5" width="140" height="75" as="geometry" />
        </mxCell>
        <mxCell id="j6Z6B7jXOkgmwzLGGSYQ-10" style="edgeStyle=orthogonalEdgeStyle;rounded=0;orthogonalLoop=1;jettySize=auto;html=1;exitX=0.5;exitY=1;exitDx=0;exitDy=0;entryX=0.5;entryY=1;entryDx=0;entryDy=0;" edge="1" parent="1" source="j6Z6B7jXOkgmwzLGGSYQ-8" target="j6Z6B7jXOkgmwzLGGSYQ-6">
          <mxGeometry relative="1" as="geometry">
            <mxPoint x="661" y="370" as="targetPoint" />
            <Array as="points">
              <mxPoint x="661" y="340" />
              <mxPoint x="486" y="340" />
            </Array>
          </mxGeometry>
        </mxCell>
        <mxCell id="j6Z6B7jXOkgmwzLGGSYQ-11" value="voltar" style="edgeLabel;html=1;align=center;verticalAlign=middle;resizable=0;points=[];" vertex="1" connectable="0" parent="j6Z6B7jXOkgmwzLGGSYQ-10">
          <mxGeometry x="-0.0944" relative="1" as="geometry">
            <mxPoint as="offset" />
          </mxGeometry>
        </mxCell>
        <mxCell id="j6Z6B7jXOkgmwzLGGSYQ-12" style="rounded=0;orthogonalLoop=1;jettySize=auto;html=1;endArrow=classic;endFill=1;exitX=1;exitY=0.5;exitDx=0;exitDy=0;" edge="1" parent="1" source="j6Z6B7jXOkgmwzLGGSYQ-8">
          <mxGeometry relative="1" as="geometry">
            <mxPoint x="746" y="380" as="targetPoint" />
            <Array as="points">
              <mxPoint x="746" y="235" />
            </Array>
          </mxGeometry>
        </mxCell>
        <mxCell id="j6Z6B7jXOkgmwzLGGSYQ-13" value="confirmar" style="edgeLabel;html=1;align=center;verticalAlign=middle;resizable=0;points=[];" vertex="1" connectable="0" parent="j6Z6B7jXOkgmwzLGGSYQ-12">
          <mxGeometry x="0.0054" relative="1" as="geometry">
            <mxPoint as="offset" />
          </mxGeometry>
        </mxCell>
        <mxCell id="j6Z6B7jXOkgmwzLGGSYQ-8" value="Informações corretas ?" style="rhombus;whiteSpace=wrap;html=1;strokeWidth=2;" vertex="1" parent="1">
          <mxGeometry x="606" y="187.5" width="110" height="95" as="geometry" />
        </mxCell>
        <mxCell id="j6Z6B7jXOkgmwzLGGSYQ-16" value="" style="edgeStyle=orthogonalEdgeStyle;rounded=0;orthogonalLoop=1;jettySize=auto;html=1;endArrow=none;endFill=0;" edge="1" parent="1" source="j6Z6B7jXOkgmwzLGGSYQ-14" target="j6Z6B7jXOkgmwzLGGSYQ-15">
          <mxGeometry relative="1" as="geometry" />
        </mxCell>
        <mxCell id="j6Z6B7jXOkgmwzLGGSYQ-14" value="Usuário tem sua compra aprovada" style="whiteSpace=wrap;html=1;strokeWidth=2;" vertex="1" parent="1">
          <mxGeometry x="656" y="380" width="140" height="75" as="geometry" />
        </mxCell>
        <mxCell id="j6Z6B7jXOkgmwzLGGSYQ-34" value="" style="edgeStyle=orthogonalEdgeStyle;rounded=0;orthogonalLoop=1;jettySize=auto;html=1;endArrow=none;endFill=0;" edge="1" parent="1" source="j6Z6B7jXOkgmwzLGGSYQ-15" target="j6Z6B7jXOkgmwzLGGSYQ-33">
          <mxGeometry relative="1" as="geometry" />
        </mxCell>
        <mxCell id="j6Z6B7jXOkgmwzLGGSYQ-15" value="Usuário imprimi seu recibo" style="whiteSpace=wrap;html=1;strokeWidth=2;" vertex="1" parent="1">
          <mxGeometry x="661" y="540" width="130" height="62.5" as="geometry" />
        </mxCell>
        <mxCell id="j6Z6B7jXOkgmwzLGGSYQ-36" value="" style="edgeStyle=orthogonalEdgeStyle;rounded=0;orthogonalLoop=1;jettySize=auto;html=1;endArrow=none;endFill=0;" edge="1" parent="1" source="j6Z6B7jXOkgmwzLGGSYQ-33" target="j6Z6B7jXOkgmwzLGGSYQ-35">
          <mxGeometry relative="1" as="geometry" />
        </mxCell>
        <mxCell id="j6Z6B7jXOkgmwzLGGSYQ-37" style="edgeStyle=orthogonalEdgeStyle;rounded=0;orthogonalLoop=1;jettySize=auto;html=1;entryX=0.5;entryY=1;entryDx=0;entryDy=0;" edge="1" parent="1" source="j6Z6B7jXOkgmwzLGGSYQ-33" target="j6Z6B7jXOkgmwzLGGSYQ-1">
          <mxGeometry relative="1" as="geometry" />
        </mxCell>
        <mxCell id="j6Z6B7jXOkgmwzLGGSYQ-33" value="Sistema volta a sua tela inicial." style="whiteSpace=wrap;html=1;strokeWidth=2;" vertex="1" parent="1">
          <mxGeometry x="666" y="683.75" width="120" height="60" as="geometry" />
        </mxCell>
        <mxCell id="j6Z6B7jXOkgmwzLGGSYQ-35" value="Fim" style="strokeWidth=2;html=1;shape=mxgraph.flowchart.terminator;whiteSpace=wrap;" vertex="1" parent="1">
          <mxGeometry x="676" y="790" width="100" height="60" as="geometry" />
        </mxCell>
      </root>
    </mxGraphModel>
  </diagram>
</mxfile>
